<svg xmlns="http://www.w3.org/2000/svg" enable-background="new 0 0 100 100" viewBox="0 0 100 100"><path d="M38.4 48.4h-7.5c-.6 0-1-.4-1-1s.4-1 1-1h7.5c.6 0 1 .4 1 1S39 48.4 38.4 48.4zM43.9 48.4h-1.4c-.6 0-1-.4-1-1s.4-1 1-1h1.4c.6 0 1 .4 1 1S44.5 48.4 43.9 48.4zM42.1 74.8c-.6 0-1-.4-1-1 0-2.7-2.2-4.8-4.8-4.8-.9 0-1.8.3-2.6.7-.3.2-.6.2-.9.1s-.5-.4-.6-.7c-.8-2.8-3.3-4.7-6.2-4.7-3.6 0-6.4 2.9-6.4 6.4 0 .6-.4 1-1 1s-1-.4-1-1c0-4.7 3.8-8.4 8.4-8.4 3.4 0 6.4 2 7.7 5 .8-.3 1.7-.5 2.5-.5 3.8 0 6.8 3.1 6.8 6.8C43.1 74.3 42.7 74.8 42.1 74.8zM63.5 71.3c-.6 0-1-.4-1-1 0-3.6 3-6.6 6.6-6.6.8 0 1.7.2 2.4.5 1.3-2.9 4.2-4.9 7.5-4.9 4.5 0 8.2 3.7 8.2 8.2 0 .6-.4 1-1 1s-1-.4-1-1c0-3.4-2.8-6.2-6.2-6.2-2.8 0-5.2 1.9-6 4.5-.1.3-.3.6-.6.7-.3.1-.6.1-.9-.1-.7-.5-1.6-.7-2.5-.7-2.5 0-4.6 2.1-4.6 4.6C64.5 70.9 64 71.3 63.5 71.3z"/><path d="M92.1,48.6l-0.4-0.4c-2.8-2.9-8.9-4.9-12.9-5H29.3c-5.1-2-9.5-5.5-12.5-10.1c-0.2-0.3-0.5-0.4-0.8-0.4H9
			c-0.3,0-0.7,0.2-0.8,0.5c-0.2,0.3-0.2,0.7-0.1,1l4.4,9.1c-0.4,0.1-0.7,0.5-0.7,0.9v1.6h-1.2c-1.4,0-2.6,1.1-2.6,2.6
			S9.1,51,10.6,51h2.1c9.1,3.8,18.6,5.7,28.5,5.7h15.5c0.7,0.9,1.9,1.6,3.2,1.6h9.7c0.6,0,1-0.4,1-1v-0.6H87c2,0,3.9-0.9,5.3-2.4
			C93.7,52.7,93.6,50.2,92.1,48.6z M15.4,34.8c2.5,3.5,5.6,6.4,9.3,8.5H14.6l-4.1-8.5H15.4z M9.9,48.4c0-0.3,0.2-0.6,0.6-0.6h10.1
			c0.3,0,0.6,0.2,0.6,0.6c0,0.3-0.2,0.6-0.6,0.6h-7.8l0,0h-2.2C10.2,48.9,9.9,48.7,9.9,48.4z M68.4,56.2h-8.7
			c-1.1,0-2.1-0.9-2.1-2.1c0-1.1,0.9-2.1,2.1-2.1h8.7V56.2z M90.8,52.9c-1,1.1-2.3,1.7-3.8,1.7H70.4V51c0-0.6-0.4-1-1-1h-9.7
			c-2.3,0-4.1,1.8-4.1,4.1c0,0.2,0,0.3,0.1,0.5H41c-7.8,0-15.4-1.3-22.7-3.7h2.3c1.4,0,2.6-1.1,2.6-2.6s-1.1-2.6-2.6-2.6h-6.8v-0.6
			H79c3,0,7.6,1.4,10.3,3.4H85c-0.6,0-1,0.4-1,1s0.4,1,1,1h6.2C91.5,51.4,91.4,52.3,90.8,52.9z"/><path d="M32.3 38.3h5.5c.3 0 .5-.2.5-.5s-.2-.5-.5-.5h-5.5c-.3 0-.5.2-.5.5S32 38.3 32.3 38.3zM42.4 35.9h15.5c.3 0 .5-.2.5-.5s-.2-.5-.5-.5H42.4c-.3 0-.5.2-.5.5S42.1 35.9 42.4 35.9z"/></svg>